<svg xmlns="http://www.w3.org/2000/svg" width="20.887" height="20.887" viewBox="0 0 20.887 20.887">
  <path id="Icon_awesome-github-square" data-name="Icon awesome-github-square" d="M18.649,2.25H2.238A2.238,2.238,0,0,0,0,4.488V20.9a2.238,2.238,0,0,0,2.238,2.238H18.649A2.238,2.238,0,0,0,20.887,20.9V4.488A2.238,2.238,0,0,0,18.649,2.25ZM12.928,20.139c-.392.07-.536-.173-.536-.373,0-.252.009-1.539.009-2.578a1.817,1.817,0,0,0-.527-1.431c1.725-.191,3.543-.429,3.543-3.408a2.394,2.394,0,0,0-.8-1.818,2.916,2.916,0,0,0-.079-2.1c-.648-.2-2.131.835-2.131.835a7.334,7.334,0,0,0-3.879,0S7.049,8.232,6.4,8.432a2.893,2.893,0,0,0-.079,2.1,2.342,2.342,0,0,0-.727,1.818c0,2.965,1.739,3.217,3.464,3.408a1.69,1.69,0,0,0-.494,1.04,1.636,1.636,0,0,1-2.252-.648,1.624,1.624,0,0,0-1.189-.8c-.755-.009-.051.476-.051.476.5.233.858,1.128.858,1.128.452,1.385,2.616.918,2.616.918,0,.648.009,1.7.009,1.893s-.14.443-.536.373a7.735,7.735,0,0,1-5.231-7.38,7.4,7.4,0,0,1,7.553-7.529,7.564,7.564,0,0,1,7.749,7.529A7.664,7.664,0,0,1,12.928,20.139ZM8.355,17.29c-.089.019-.173-.019-.182-.079s.051-.131.14-.149.173.028.182.089S8.448,17.272,8.355,17.29Zm-.443-.042c0,.061-.07.112-.163.112s-.173-.042-.173-.112.07-.112.163-.112S7.912,17.178,7.912,17.248ZM7.273,17.2c-.019.061-.112.089-.191.061s-.149-.089-.131-.149.112-.089.191-.07S7.3,17.136,7.273,17.2ZM6.7,16.945c-.042.051-.131.042-.2-.028s-.089-.149-.042-.191.131-.042.2.028S6.742,16.908,6.7,16.945Zm-.424-.424c-.042.028-.121,0-.173-.07s-.051-.149,0-.182.131-.009.173.061A.137.137,0,0,1,6.275,16.521Zm-.3-.452c-.042.042-.112.019-.163-.028s-.061-.131-.019-.163.112-.019.163.028S6.014,16.036,5.972,16.069Zm-.312-.345a.088.088,0,0,1-.131.019c-.061-.028-.089-.079-.07-.121A.11.11,0,0,1,5.59,15.6C5.651,15.635,5.679,15.687,5.66,15.724Z" transform="translate(0 -2.25)" fill="#747474"/>
</svg>
