<svg xmlns="http://www.w3.org/2000/svg" width="95.21" height="75.43" viewBox="0 0 95.21 75.43">
  <path id="Icon_awesome-linkedin" data-name="Icon awesome-linkedin" d="M88.409,2.25H6.779C3.039,2.25,0,4.691,0,7.688V72.242c0,3,3.039,5.438,6.779,5.438h81.63c3.74,0,6.8-2.441,6.8-5.438V7.688C95.21,4.691,92.15,2.25,88.409,2.25ZM28.776,66.9H14.664v-36H28.8v36ZM21.72,25.99c-4.527,0-8.182-2.913-8.182-6.482s3.655-6.482,8.182-6.482c4.505,0,8.182,2.913,8.182,6.482,0,3.586-3.655,6.482-8.182,6.482ZM81.672,66.9H67.561V49.394c0-4.176-.106-9.547-7.332-9.547-7.353,0-8.48,4.546-8.48,9.244V66.9H37.638v-36H51.175v4.916h.191c1.891-2.829,6.5-5.809,13.368-5.809,14.282,0,16.938,7.459,16.938,17.157Z" transform="translate(0 -2.25)" fill="#77a6f7"/>
</svg>
